<svg width="24" height="24" viewBox="0 0 24 24" fill="none" xmlns="http://www.w3.org/2000/svg">
<g clip-path="url(#clip0_4742_3824)">
<mask id="path-1-inside-1_4742_3824" fill="white">
<path d="M4.96559 2C4.90242 2.00138 4.84198 2.02649 4.7959 2.07052C4.74983 2.11454 4.72137 2.17436 4.71602 2.23847C4.71602 2.23847 4.68082 2.64308 4.58867 3.09917C4.52769 3.49143 4.39182 3.86773 4.18873 4.2068C3.85265 4.41854 3.47993 4.56296 3.09063 4.63226C2.63436 4.7326 2.23058 4.77821 2.23058 4.77821C2.16269 4.77821 2.09758 4.80567 2.04958 4.85455C2.00158 4.90342 1.97461 4.96971 1.97461 5.03883C1.97461 5.10795 2.00158 5.17424 2.04958 5.22312C2.09758 5.27199 2.16269 5.29945 2.23058 5.29945C2.23058 5.29945 2.62669 5.3418 3.07527 5.43954C3.46104 5.50643 3.83045 5.64869 4.16313 5.85848C4.37202 6.19695 4.51558 6.57288 4.58612 6.96612C4.68658 7.4222 4.7333 7.83138 4.7333 7.83138C4.7333 7.9005 4.76026 7.96679 4.80827 8.01567C4.85627 8.06454 4.92138 8.092 4.98926 8.092C5.05715 8.092 5.12226 8.06454 5.17026 8.01567C5.21826 7.96679 5.24523 7.9005 5.24523 7.83138C5.24523 7.83138 5.29258 7.42546 5.39433 6.96547C5.46567 6.57063 5.60962 6.19306 5.8186 5.85262C6.14702 5.64135 6.51254 5.49687 6.89494 5.42716C7.34288 5.32747 7.73195 5.28316 7.73195 5.28316C7.79984 5.28265 7.86474 5.25469 7.91239 5.20545C7.96003 5.15621 7.98651 5.08971 7.986 5.02059C7.98549 4.95147 7.95803 4.88538 7.90967 4.83688C7.86131 4.78837 7.796 4.7614 7.72811 4.76192C7.72811 4.76192 7.32496 4.72153 6.8687 4.6264C6.47941 4.56254 6.1059 4.42272 5.76868 4.21462C5.56373 3.87579 5.4255 3.49958 5.3617 3.10698C5.26763 2.64569 5.22859 2.23847 5.22859 2.23847C5.22259 2.17235 5.19204 2.11106 5.14316 2.0671C5.09428 2.02315 5.03077 1.99985 4.96559 2.00195V2ZM4.97647 3.68556C5.04049 4.01932 5.18844 4.33046 5.40585 4.58861C5.67758 4.8206 6.00439 4.97585 6.35357 5.03883C6.01947 5.10688 5.708 5.26073 5.44872 5.4858C5.21348 5.77395 5.05484 6.11876 4.98798 6.48723C4.92104 6.11947 4.76139 5.77573 4.52468 5.48971C4.25867 5.26122 3.93932 5.10639 3.59744 5.04014C3.95147 4.97433 4.2824 4.81529 4.55732 4.57884C4.77035 4.32286 4.91474 4.01514 4.97647 3.68556ZM13.264 3.79698C13.2009 3.79835 13.1404 3.82347 13.0944 3.8675C13.0483 3.91152 13.0198 3.97134 13.0145 4.03544C13.0145 4.03544 12.8999 5.3177 12.612 6.77587C12.324 8.23404 11.8255 9.87204 11.2227 10.4897C10.6199 11.1074 8.99387 11.6423 7.54446 11.9616C6.09504 12.2808 4.81713 12.4229 4.81713 12.4229C4.74924 12.4229 4.68413 12.4503 4.63613 12.4992C4.58813 12.5481 4.56116 12.6144 4.56116 12.6835C4.56116 12.7526 4.58813 12.8189 4.63613 12.8678C4.68413 12.9166 4.74924 12.9441 4.81713 12.9441C4.81713 12.9441 6.07072 13.0777 7.49646 13.3878C8.9222 13.6979 10.5252 14.2218 11.1338 14.8375C11.7423 15.4532 12.2728 17.0919 12.5928 18.5513C12.9127 20.0108 13.058 21.2937 13.058 21.2937C13.058 21.3628 13.085 21.4291 13.133 21.478C13.181 21.5269 13.2461 21.5543 13.314 21.5543C13.3818 21.5543 13.4469 21.5269 13.495 21.478C13.543 21.4291 13.5699 21.3628 13.5699 21.2937C13.5699 21.2937 13.719 20.0095 14.0422 18.5487C14.3653 17.088 14.8971 15.4467 15.5031 14.8264C16.1091 14.2062 17.6987 13.6751 19.1123 13.3572C20.5258 13.0392 21.7686 12.9011 21.7686 12.9011C21.8364 12.9011 21.9016 12.8736 21.9496 12.8248C21.9976 12.7759 22.0245 12.7096 22.0245 12.6405C22.0245 12.5714 21.9976 12.5051 21.9496 12.4562C21.9016 12.4073 21.8364 12.3799 21.7686 12.3799C21.7686 12.3799 20.4926 12.2535 19.0438 11.9498C17.595 11.6462 15.9722 11.1282 15.3636 10.5164C14.7551 9.90461 14.2482 8.2588 13.9507 6.79411C13.6531 5.32942 13.5296 4.0387 13.5296 4.0387C13.5236 3.97247 13.493 3.91108 13.4439 3.86711C13.3949 3.82314 13.3313 3.79991 13.266 3.80219L13.264 3.79698ZM13.2762 5.89367C13.3312 6.23247 13.3664 6.51394 13.4439 6.89575C13.7478 8.39432 14.1926 10.0675 14.9982 10.8839C15.8039 11.7003 17.4587 12.1518 18.9376 12.4613C19.3554 12.5493 19.6728 12.5916 20.0363 12.6509C19.6914 12.7161 19.3964 12.7558 19.0016 12.8464C17.5566 13.1721 15.9363 13.6406 15.1377 14.4576C14.3391 15.2747 13.8688 16.944 13.5379 18.4321C13.4368 18.8882 13.3831 19.242 13.3146 19.6323C13.2474 19.2413 13.1949 18.8908 13.0951 18.4354C12.7687 16.9459 12.3003 15.2786 11.4953 14.4648C10.6903 13.651 9.06234 13.1884 7.60525 12.8724C7.1957 12.7838 6.88598 12.7421 6.52955 12.677C6.90006 12.6118 7.22578 12.5649 7.6526 12.4704C9.13209 12.1446 10.7882 11.6755 11.5875 10.8552C12.3867 10.0349 12.8231 8.365 13.1169 6.8749C13.1911 6.49961 13.2231 6.22335 13.2756 5.88911L13.2762 5.89367ZM6.69145 15.9347C6.62827 15.9361 6.56784 15.9612 6.52176 16.0052C6.47569 16.0493 6.44723 16.1091 6.44188 16.1732C6.44188 16.1732 6.4054 16.5784 6.31389 17.0371C6.25278 17.4295 6.11668 17.8058 5.91331 18.1448C5.57728 18.3568 5.20456 18.5014 4.81521 18.5709C4.35894 18.6712 3.95452 18.7162 3.95452 18.7162C3.88663 18.7162 3.82152 18.7436 3.77352 18.7925C3.72552 18.8414 3.69855 18.9077 3.69855 18.9768C3.69855 19.0459 3.72552 19.1122 3.77352 19.1611C3.82152 19.21 3.88663 19.2374 3.95452 19.2374C3.95452 19.2374 4.35063 19.2798 4.79921 19.3775C5.18498 19.4444 5.55439 19.5867 5.88707 19.7965C6.09604 20.1349 6.23961 20.5108 6.31005 20.9041C6.41052 21.3602 6.4566 21.7687 6.4566 21.7687C6.4566 21.8378 6.48356 21.9041 6.53157 21.953C6.57957 22.0019 6.64468 22.0293 6.71256 22.0293C6.78045 22.0293 6.84556 22.0019 6.89356 21.953C6.94156 21.9041 6.96853 21.8378 6.96853 21.7687C6.96853 21.7687 7.01524 21.3628 7.11699 20.9028C7.18836 20.508 7.33231 20.1304 7.54126 19.7899C7.86973 19.5789 8.23524 19.4346 8.6176 19.3651C9.06554 19.2654 9.45525 19.2205 9.45525 19.2205C9.48887 19.2202 9.5221 19.2132 9.55306 19.1999C9.58402 19.1866 9.61209 19.1672 9.63569 19.1428C9.65928 19.1184 9.67792 19.0895 9.69055 19.0578C9.70318 19.0261 9.70955 18.9921 9.7093 18.9579C9.70905 18.9237 9.70218 18.8898 9.68908 18.8583C9.67598 18.8268 9.65692 18.7982 9.63297 18.7742C9.60902 18.7502 9.58067 18.7312 9.54951 18.7183C9.51836 18.7055 9.48503 18.699 9.45141 18.6992C9.45141 18.6992 9.04826 18.6595 8.592 18.5637C8.20412 18.4987 7.83217 18.3582 7.49646 18.15C7.29134 17.8112 7.15289 17.435 7.08883 17.0423C6.99477 16.5811 6.95637 16.1732 6.95637 16.1732C6.95037 16.1069 6.91972 16.0456 6.8707 16.0016C6.82169 15.9576 6.75801 15.9344 6.69273 15.9367L6.69145 15.9347ZM6.70232 17.6183C6.76625 17.9523 6.9142 18.2637 7.13171 18.522C7.40364 18.754 7.7307 18.909 8.08007 18.9716C7.74625 19.0404 7.43523 19.195 7.1765 19.4205C6.94086 19.7079 6.78157 20.052 6.71384 20.42C6.64688 20.0524 6.48722 19.7089 6.25054 19.4231C5.98403 19.1935 5.66372 19.038 5.32074 18.9716C5.67466 18.9058 6.00555 18.747 6.28062 18.5109C6.49497 18.2547 6.64048 17.9463 6.70296 17.6157L6.70232 17.6183Z"/>
</mask>
<path d="M4.96559 2C4.90242 2.00138 4.84198 2.02649 4.7959 2.07052C4.74983 2.11454 4.72137 2.17436 4.71602 2.23847C4.71602 2.23847 4.68082 2.64308 4.58867 3.09917C4.52769 3.49143 4.39182 3.86773 4.18873 4.2068C3.85265 4.41854 3.47993 4.56296 3.09063 4.63226C2.63436 4.7326 2.23058 4.77821 2.23058 4.77821C2.16269 4.77821 2.09758 4.80567 2.04958 4.85455C2.00158 4.90342 1.97461 4.96971 1.97461 5.03883C1.97461 5.10795 2.00158 5.17424 2.04958 5.22312C2.09758 5.27199 2.16269 5.29945 2.23058 5.29945C2.23058 5.29945 2.62669 5.3418 3.07527 5.43954C3.46104 5.50643 3.83045 5.64869 4.16313 5.85848C4.37202 6.19695 4.51558 6.57288 4.58612 6.96612C4.68658 7.4222 4.7333 7.83138 4.7333 7.83138C4.7333 7.9005 4.76026 7.96679 4.80827 8.01567C4.85627 8.06454 4.92138 8.092 4.98926 8.092C5.05715 8.092 5.12226 8.06454 5.17026 8.01567C5.21826 7.96679 5.24523 7.9005 5.24523 7.83138C5.24523 7.83138 5.29258 7.42546 5.39433 6.96547C5.46567 6.57063 5.60962 6.19306 5.8186 5.85262C6.14702 5.64135 6.51254 5.49687 6.89494 5.42716C7.34288 5.32747 7.73195 5.28316 7.73195 5.28316C7.79984 5.28265 7.86474 5.25469 7.91239 5.20545C7.96003 5.15621 7.98651 5.08971 7.986 5.02059C7.98549 4.95147 7.95803 4.88538 7.90967 4.83688C7.86131 4.78837 7.796 4.7614 7.72811 4.76192C7.72811 4.76192 7.32496 4.72153 6.8687 4.6264C6.47941 4.56254 6.1059 4.42272 5.76868 4.21462C5.56373 3.87579 5.4255 3.49958 5.3617 3.10698C5.26763 2.64569 5.22859 2.23847 5.22859 2.23847C5.22259 2.17235 5.19204 2.11106 5.14316 2.0671C5.09428 2.02315 5.03077 1.99985 4.96559 2.00195V2ZM4.97647 3.68556C5.04049 4.01932 5.18844 4.33046 5.40585 4.58861C5.67758 4.8206 6.00439 4.97585 6.35357 5.03883C6.01947 5.10688 5.708 5.26073 5.44872 5.4858C5.21348 5.77395 5.05484 6.11876 4.98798 6.48723C4.92104 6.11947 4.76139 5.77573 4.52468 5.48971C4.25867 5.26122 3.93932 5.10639 3.59744 5.04014C3.95147 4.97433 4.2824 4.81529 4.55732 4.57884C4.77035 4.32286 4.91474 4.01514 4.97647 3.68556ZM13.264 3.79698C13.2009 3.79835 13.1404 3.82347 13.0944 3.8675C13.0483 3.91152 13.0198 3.97134 13.0145 4.03544C13.0145 4.03544 12.8999 5.3177 12.612 6.77587C12.324 8.23404 11.8255 9.87204 11.2227 10.4897C10.6199 11.1074 8.99387 11.6423 7.54446 11.9616C6.09504 12.2808 4.81713 12.4229 4.81713 12.4229C4.74924 12.4229 4.68413 12.4503 4.63613 12.4992C4.58813 12.5481 4.56116 12.6144 4.56116 12.6835C4.56116 12.7526 4.58813 12.8189 4.63613 12.8678C4.68413 12.9166 4.74924 12.9441 4.81713 12.9441C4.81713 12.9441 6.07072 13.0777 7.49646 13.3878C8.9222 13.6979 10.5252 14.2218 11.1338 14.8375C11.7423 15.4532 12.2728 17.0919 12.5928 18.5513C12.9127 20.0108 13.058 21.2937 13.058 21.2937C13.058 21.3628 13.085 21.4291 13.133 21.478C13.181 21.5269 13.2461 21.5543 13.314 21.5543C13.3818 21.5543 13.4469 21.5269 13.495 21.478C13.543 21.4291 13.5699 21.3628 13.5699 21.2937C13.5699 21.2937 13.719 20.0095 14.0422 18.5487C14.3653 17.088 14.8971 15.4467 15.5031 14.8264C16.1091 14.2062 17.6987 13.6751 19.1123 13.3572C20.5258 13.0392 21.7686 12.9011 21.7686 12.9011C21.8364 12.9011 21.9016 12.8736 21.9496 12.8248C21.9976 12.7759 22.0245 12.7096 22.0245 12.6405C22.0245 12.5714 21.9976 12.5051 21.9496 12.4562C21.9016 12.4073 21.8364 12.3799 21.7686 12.3799C21.7686 12.3799 20.4926 12.2535 19.0438 11.9498C17.595 11.6462 15.9722 11.1282 15.3636 10.5164C14.7551 9.90461 14.2482 8.2588 13.9507 6.79411C13.6531 5.32942 13.5296 4.0387 13.5296 4.0387C13.5236 3.97247 13.493 3.91108 13.4439 3.86711C13.3949 3.82314 13.3313 3.79991 13.266 3.80219L13.264 3.79698ZM13.2762 5.89367C13.3312 6.23247 13.3664 6.51394 13.4439 6.89575C13.7478 8.39432 14.1926 10.0675 14.9982 10.8839C15.8039 11.7003 17.4587 12.1518 18.9376 12.4613C19.3554 12.5493 19.6728 12.5916 20.0363 12.6509C19.6914 12.7161 19.3964 12.7558 19.0016 12.8464C17.5566 13.1721 15.9363 13.6406 15.1377 14.4576C14.3391 15.2747 13.8688 16.944 13.5379 18.4321C13.4368 18.8882 13.3831 19.242 13.3146 19.6323C13.2474 19.2413 13.1949 18.8908 13.0951 18.4354C12.7687 16.9459 12.3003 15.2786 11.4953 14.4648C10.6903 13.651 9.06234 13.1884 7.60525 12.8724C7.1957 12.7838 6.88598 12.7421 6.52955 12.677C6.90006 12.6118 7.22578 12.5649 7.6526 12.4704C9.13209 12.1446 10.7882 11.6755 11.5875 10.8552C12.3867 10.0349 12.8231 8.365 13.1169 6.8749C13.1911 6.49961 13.2231 6.22335 13.2756 5.88911L13.2762 5.89367ZM6.69145 15.9347C6.62827 15.9361 6.56784 15.9612 6.52176 16.0052C6.47569 16.0493 6.44723 16.1091 6.44188 16.1732C6.44188 16.1732 6.4054 16.5784 6.31389 17.0371C6.25278 17.4295 6.11668 17.8058 5.91331 18.1448C5.57728 18.3568 5.20456 18.5014 4.81521 18.5709C4.35894 18.6712 3.95452 18.7162 3.95452 18.7162C3.88663 18.7162 3.82152 18.7436 3.77352 18.7925C3.72552 18.8414 3.69855 18.9077 3.69855 18.9768C3.69855 19.0459 3.72552 19.1122 3.77352 19.1611C3.82152 19.21 3.88663 19.2374 3.95452 19.2374C3.95452 19.2374 4.35063 19.2798 4.79921 19.3775C5.18498 19.4444 5.55439 19.5867 5.88707 19.7965C6.09604 20.1349 6.23961 20.5108 6.31005 20.9041C6.41052 21.3602 6.4566 21.7687 6.4566 21.7687C6.4566 21.8378 6.48356 21.9041 6.53157 21.953C6.57957 22.0019 6.64468 22.0293 6.71256 22.0293C6.78045 22.0293 6.84556 22.0019 6.89356 21.953C6.94156 21.9041 6.96853 21.8378 6.96853 21.7687C6.96853 21.7687 7.01524 21.3628 7.11699 20.9028C7.18836 20.508 7.33231 20.1304 7.54126 19.7899C7.86973 19.5789 8.23524 19.4346 8.6176 19.3651C9.06554 19.2654 9.45525 19.2205 9.45525 19.2205C9.48887 19.2202 9.5221 19.2132 9.55306 19.1999C9.58402 19.1866 9.61209 19.1672 9.63569 19.1428C9.65928 19.1184 9.67792 19.0895 9.69055 19.0578C9.70318 19.0261 9.70955 18.9921 9.7093 18.9579C9.70905 18.9237 9.70218 18.8898 9.68908 18.8583C9.67598 18.8268 9.65692 18.7982 9.63297 18.7742C9.60902 18.7502 9.58067 18.7312 9.54951 18.7183C9.51836 18.7055 9.48503 18.699 9.45141 18.6992C9.45141 18.6992 9.04826 18.6595 8.592 18.5637C8.20412 18.4987 7.83217 18.3582 7.49646 18.15C7.29134 17.8112 7.15289 17.435 7.08883 17.0423C6.99477 16.5811 6.95637 16.1732 6.95637 16.1732C6.95037 16.1069 6.91972 16.0456 6.8707 16.0016C6.82169 15.9576 6.75801 15.9344 6.69273 15.9367L6.69145 15.9347ZM6.70232 17.6183C6.76625 17.9523 6.9142 18.2637 7.13171 18.522C7.40364 18.754 7.7307 18.909 8.08007 18.9716C7.74625 19.0404 7.43523 19.195 7.1765 19.4205C6.94086 19.7079 6.78157 20.052 6.71384 20.42C6.64688 20.0524 6.48722 19.7089 6.25054 19.4231C5.98403 19.1935 5.66372 19.038 5.32074 18.9716C5.67466 18.9058 6.00555 18.747 6.28062 18.5109C6.49497 18.2547 6.64048 17.9463 6.70296 17.6157L6.70232 17.6183Z" stroke="white" stroke-width="2" mask="url(#path-1-inside-1_4742_3824)"/>
</g>
<defs>
<clipPath id="clip0_4742_3824">
<rect width="20" height="20" fill="white" transform="translate(2 2)"/>
</clipPath>
</defs>
</svg>
