<svg width="24" height="24" viewBox="0 0 24 24" fill="none" xmlns="http://www.w3.org/2000/svg">
<path d="M16.1622 8.30734C16.6753 7.856 17.0009 7.19688 17.0009 6.46158C17.0009 5.1041 15.8967 4 14.5392 4C13.6128 4 12.8053 4.51483 12.3851 5.27264C11.9649 4.51483 11.1574 4 10.231 4C8.8735 4 7.76934 5.1041 7.76934 6.46158C7.76934 7.19688 8.09488 7.856 8.608 8.30734H5V20H19.7702V8.30734H16.1622ZM19.1549 8.92259V13.8458H12.6928V8.92259H13.0858L14.5796 11.5371L15.1141 11.2318L13.7946 8.92259H19.1549ZM12.3851 7.6967L12.7337 8.30734H12.0359L12.3845 7.6967H12.3851ZM14.5392 4.61525C15.5573 4.61525 16.3856 5.44347 16.3856 6.46158C16.3856 7.47969 15.5573 8.30734 14.5392 8.30734C13.521 8.30734 12.6928 7.47969 12.6928 6.46158C12.6928 5.44347 13.521 4.61525 14.5392 4.61525ZM8.38463 6.46158C8.38463 5.44347 9.21289 4.61525 10.231 4.61525C11.2492 4.61525 12.0775 5.44347 12.0775 6.46158C12.0775 7.47911 11.2492 8.30734 10.231 8.30734C9.21289 8.30734 8.38463 7.47969 8.38463 6.46158ZM10.9756 8.92259L9.65617 11.2312L10.1906 11.5365L11.6844 8.92201H12.0775V13.8452H5.61528V8.92201H10.9756V8.92259ZM5.61528 14.4616H12.0775V19.3847H5.61528V14.4616ZM12.6928 19.3842V14.461H19.1549V19.3842H12.6928Z" fill="white"/>
</svg>
